# xmcd CD database file
#
# Track frame offsets:
#	150
#	22619
#	44769
#	63901
#	82617
#	108037
#	122666
#	140647
#	160410
#	182361
#	202325
#	219466
#	234280
#	251930
#	273359
#
# Disc length: 3900 seconds
#
# Revision: 0
# Processed by: cddbd v1.5.2PL0 Copyright (c) Steve Scherf et al.
# Submitted via: CDex 1.70beta2
#
DISCID=ca0f3a0f
DTITLE=Massimo Farao trio - Jazz Piano trio - CD 2
DYEAR=2007
DGENRE=Jazz
TTITLE0=Du Soleil plein les yeux
TTITLE1=Summer time in venice
TTITLE2=une Belle Historie
TTITLE3=Mas Que Nada
TTITLE4=Edd Tide
TTITLE5=Maria Elena
TTITLE6=Blauer Himmel
TTITLE7=La Cumparsita
TTITLE8=La Playa
TTITLE9=La Mer
TTITLE10=Love Letters in the sand
TTITLE11=Canon de Pachelbel
TTITLE12=The Hawaiian Wedding Song
TTITLE13=Some enchanted evening
TTITLE14=The girl from lpanema
EXTD=YEAR: 2007
EXTT0=
EXTT1=
EXTT2=
EXTT3=
EXTT4=
EXTT5=
EXTT6=
EXTT7=
EXTT8=
EXTT9=
EXTT10=
EXTT11=
EXTT12=
EXTT13=
EXTT14=
PLAYORDER=
